<svg width="161" height="40" viewBox="0 0 161 40" fill="none" xmlns="http://www.w3.org/2000/svg">
<path d="M50.096 28L44.504 10.48H48.032L52.496 25.168H53.336L57.488 10.48H60.896L55.712 28H50.096ZM66.4904 28.336C65.0504 28.336 63.8984 27.968 63.0344 27.232C62.1864 26.496 61.7624 25.464 61.7624 24.136C61.7624 22.712 62.2744 21.664 63.2984 20.992C64.3384 20.304 65.7304 19.96 67.4744 19.96H70.1384V19.84C70.1384 18.352 69.3864 17.608 67.8824 17.608C67.4824 17.608 67.0024 17.616 66.4424 17.632C65.8824 17.648 65.3144 17.672 64.7384 17.704C64.1784 17.72 63.6744 17.744 63.2264 17.776V14.944C63.7704 14.896 64.4184 14.856 65.1704 14.824C65.9384 14.792 66.6424 14.776 67.2824 14.776C69.2824 14.776 70.7864 15.184 71.7944 16C72.8184 16.8 73.3304 18.104 73.3304 19.912V28H70.6904V25.504C70.0984 27.392 68.6984 28.336 66.4904 28.336ZM67.4264 25.96C67.8744 25.96 68.2984 25.88 68.6984 25.72C69.0984 25.544 69.4264 25.256 69.6824 24.856C69.9544 24.44 70.1064 23.88 70.1384 23.176V21.952H67.4264C66.6584 21.952 66.0664 22.144 65.6504 22.528C65.2504 22.896 65.0504 23.376 65.0504 23.968C65.0504 24.576 65.2504 25.064 65.6504 25.432C66.0664 25.784 66.6584 25.96 67.4264 25.96ZM82.6878 28.456C81.5518 28.456 80.5678 28.264 79.7358 27.88C78.9038 27.496 78.2158 26.984 77.6718 26.344C77.1278 25.704 76.7198 24.984 76.4478 24.184C76.1758 23.384 76.0398 22.568 76.0398 21.736V21.28C76.0398 20.416 76.1758 19.584 76.4478 18.784C76.7358 17.968 77.1518 17.24 77.6958 16.6C78.2558 15.96 78.9438 15.456 79.7598 15.088C80.5918 14.704 81.5598 14.512 82.6638 14.512C83.7998 14.512 84.8078 14.736 85.6878 15.184C86.5838 15.616 87.2958 16.224 87.8238 17.008C88.3678 17.792 88.6798 18.704 88.7598 19.744H85.5198C85.4238 19.072 85.1358 18.512 84.6558 18.064C84.1758 17.616 83.5118 17.392 82.6638 17.392C81.5438 17.392 80.7118 17.776 80.1678 18.544C79.6398 19.312 79.3758 20.296 79.3758 21.496C79.3758 22.664 79.6318 23.64 80.1438 24.424C80.6718 25.192 81.5198 25.576 82.6878 25.576C83.5518 25.576 84.2318 25.352 84.7278 24.904C85.2398 24.456 85.5438 23.872 85.6398 23.152H88.8798C88.8158 24.208 88.5038 25.136 87.9438 25.936C87.3998 26.736 86.6718 27.36 85.7598 27.808C84.8478 28.24 83.8238 28.456 82.6878 28.456ZM95.2483 28.336C93.8083 28.336 92.6563 27.968 91.7923 27.232C90.9443 26.496 90.5203 25.464 90.5203 24.136C90.5203 22.712 91.0323 21.664 92.0563 20.992C93.0963 20.304 94.4883 19.96 96.2323 19.96H98.8963V19.84C98.8963 18.352 98.1443 17.608 96.6403 17.608C96.2403 17.608 95.7603 17.616 95.2003 17.632C94.6403 17.648 94.0723 17.672 93.4963 17.704C92.9363 17.72 92.4323 17.744 91.9843 17.776V14.944C92.5283 14.896 93.1763 14.856 93.9283 14.824C94.6963 14.792 95.4003 14.776 96.0403 14.776C98.0403 14.776 99.5443 15.184 100.552 16C101.576 16.8 102.088 18.104 102.088 19.912V28H99.4483V25.504C98.8563 27.392 97.4563 28.336 95.2483 28.336ZM96.1843 25.96C96.6323 25.96 97.0563 25.88 97.4563 25.72C97.8563 25.544 98.1843 25.256 98.4403 24.856C98.7123 24.44 98.8643 23.88 98.8963 23.176V21.952H96.1843C95.4163 21.952 94.8243 22.144 94.4083 22.528C94.0083 22.896 93.8083 23.376 93.8083 23.968C93.8083 24.576 94.0083 25.064 94.4083 25.432C94.8243 25.784 95.4163 25.96 96.1843 25.96ZM111.326 28.168C110.126 28.168 109.134 28.016 108.35 27.712C107.566 27.392 106.982 26.864 106.598 26.128C106.23 25.392 106.046 24.384 106.046 23.104V17.416H103.982V14.968H106.046L106.07 11.296H109.19L109.166 14.968H113.198V17.416H109.166V23.32C109.166 23.96 109.334 24.456 109.67 24.808C110.022 25.144 110.518 25.312 111.158 25.312H113.198V28.168H111.326ZM120.438 28.408C118.934 28.408 117.766 27.92 116.934 26.944C116.118 25.952 115.71 24.472 115.71 22.504V14.944H119.046V22.792C119.046 23.608 119.27 24.248 119.718 24.712C120.166 25.176 120.774 25.408 121.542 25.408C122.31 25.408 122.934 25.16 123.414 24.664C123.91 24.168 124.158 23.496 124.158 22.648V14.944H127.494V28H124.854V24.976C124.294 27.264 122.87 28.408 120.582 28.408H120.438ZM131.326 28V14.968H133.966V19.216C134.318 16.272 135.87 14.8 138.622 14.8H139.102V17.704H138.19C137.054 17.704 136.182 18.008 135.574 18.616C134.966 19.224 134.662 20.088 134.662 21.208V28H131.326ZM147.072 28.456C145.952 28.456 144.968 28.264 144.12 27.88C143.288 27.496 142.592 26.984 142.032 26.344C141.488 25.688 141.072 24.96 140.784 24.16C140.512 23.36 140.376 22.544 140.376 21.712V21.256C140.376 20.392 140.512 19.56 140.784 18.76C141.072 17.96 141.488 17.24 142.032 16.6C142.592 15.96 143.28 15.456 144.096 15.088C144.912 14.704 145.856 14.512 146.928 14.512C148.336 14.512 149.512 14.824 150.456 15.448C151.4 16.056 152.112 16.864 152.592 17.872C153.088 18.864 153.336 19.936 153.336 21.088V22.288H143.544C143.656 23.312 143.992 24.136 144.552 24.76C145.128 25.384 145.968 25.696 147.072 25.696C147.872 25.696 148.528 25.536 149.04 25.216C149.568 24.88 149.904 24.472 150.048 23.992H153.12C152.832 25.336 152.152 26.416 151.08 27.232C150.008 28.048 148.672 28.456 147.072 28.456ZM146.928 17.272C145.984 17.272 145.232 17.536 144.672 18.064C144.112 18.592 143.752 19.32 143.592 20.248H150.144C150.016 19.32 149.68 18.592 149.136 18.064C148.608 17.536 147.872 17.272 146.928 17.272ZM155.384 28V24.16H159.128V28H155.384Z" fill="white"/>
<path d="M20.8333 36.45L33.8167 28.95C34.071 28.8031 34.282 28.5917 34.4284 28.337C34.5747 28.0824 34.6512 27.7936 34.65 27.4999L34.65 12.5C34.6512 12.2063 34.5747 11.9175 34.4284 11.6629C34.282 11.4082 34.071 11.1968 33.8167 11.05L20.8333 3.54995C20.58 3.40367 20.2926 3.32666 20 3.32666C19.7075 3.32666 19.42 3.40367 19.1667 3.54995L6.18334 11.0499C5.929 11.1968 5.71798 11.4082 5.57164 11.6629C5.4253 11.9175 5.34885 12.2063 5.35001 12.4999L5.35001 27.4999C5.34885 27.7936 5.4253 28.0824 5.57164 28.337C5.71798 28.5917 5.929 28.8031 6.18334 28.9499L19.1667 36.45C19.42 36.5962 19.7075 36.6732 20 36.6732C20.2926 36.6732 20.58 36.5962 20.8333 36.45ZM8.68334 26.4499L8.68335 13.4666L20 6.91662L31.3167 13.4666L31.3167 26.5333L20 33.0833L8.68334 26.4499Z" fill="white"/>
</svg>
