<svg width="203" height="66" viewBox="0 0 203 66" fill="none" xmlns="http://www.w3.org/2000/svg">
<path d="M196.677 40.3356L202.308 44.0555C200.481 46.7231 196.109 51.2996 188.551 51.2996C179.165 51.2996 172.176 44.1045 172.176 34.9515C172.176 25.2112 179.239 18.6035 187.761 18.6035C196.331 18.6035 200.53 25.3581 201.888 29.0046L202.629 30.8645L180.549 39.9196C182.228 43.199 184.846 44.8631 188.551 44.8631C192.256 44.8631 194.825 43.0521 196.677 40.3356ZM179.363 34.4376L194.108 28.3683C193.293 26.337 190.873 24.8931 187.983 24.8931C184.303 24.8931 179.19 28.1235 179.363 34.4376Z" fill="#CCCCCC"/>
<path d="M161.53 1.93726H168.644V49.8066H161.53V1.93726Z" fill="#CCCCCC"/>
<path d="M150.317 19.8762H157.183V48.9502C157.183 61.0154 149.996 65.9834 141.499 65.9834C133.497 65.9834 128.68 60.6483 126.877 56.3166L133.176 53.7224C134.312 56.39 137.053 59.547 141.499 59.547C146.958 59.547 150.317 56.1942 150.317 49.9291V47.5797H150.07C148.44 49.5375 145.328 51.2996 141.376 51.2996C133.126 51.2996 125.568 44.1779 125.568 35.0005C125.568 25.7742 133.126 18.5791 141.376 18.5791C145.303 18.5791 148.44 20.3167 150.07 22.2256H150.317V19.8762ZM150.811 35.0005C150.811 29.2249 146.933 25.0155 141.993 25.0155C137.004 25.0155 132.805 29.2249 132.805 35.0005C132.805 40.7028 137.004 44.8387 141.993 44.8387C146.933 44.8632 150.811 40.7028 150.811 35.0005Z" fill="#CCCCCC"/>
<path d="M86.5192 34.8781C86.5192 44.3002 79.1094 51.2261 70.0202 51.2261C60.931 51.2261 53.5212 44.2758 53.5212 34.8781C53.5212 25.407 60.931 18.5056 70.0202 18.5056C79.1094 18.5056 86.5192 25.407 86.5192 34.8781ZM79.307 34.8781C79.307 29.0046 75.0094 24.9665 70.0202 24.9665C65.031 24.9665 60.7334 29.0046 60.7334 34.8781C60.7334 40.7027 65.031 44.7897 70.0202 44.7897C75.0094 44.7897 79.307 40.7027 79.307 34.8781Z" fill="#CCCCCC"/>
<path d="M122.555 34.9515C122.555 44.3737 115.145 51.2996 106.056 51.2996C96.9668 51.2996 89.5571 44.3737 89.5571 34.9515C89.5571 25.4805 96.9668 18.6035 106.056 18.6035C115.145 18.6035 122.555 25.456 122.555 34.9515ZM115.318 34.9515C115.318 29.078 111.021 25.0399 106.031 25.0399C101.042 25.0399 96.7445 29.078 96.7445 34.9515C96.7445 40.7761 101.042 44.8631 106.031 44.8631C111.045 44.8631 115.318 40.7517 115.318 34.9515Z" fill="#CCCCCC"/>
<path d="M26.4018 44.1289C16.0529 44.1289 7.95162 35.857 7.95162 25.6028C7.95162 15.3485 16.0529 7.07663 26.4018 7.07663C31.9838 7.07663 36.0591 9.25474 39.0724 12.0447L44.0369 7.12558C39.8381 3.13647 34.2314 0.101807 26.4018 0.101807C12.2246 0.101807 0.294922 11.5552 0.294922 25.6028C0.294922 39.6503 12.2246 51.1037 26.4018 51.1037C34.0585 51.1037 39.8381 48.6075 44.358 43.9576C49.0014 39.3566 50.434 32.8957 50.434 27.6585C50.434 26.0188 50.2364 24.3302 50.0141 23.082H26.4018V29.8855H43.2218C42.7279 34.1439 41.3694 37.0562 39.3688 39.0385C36.9483 41.4613 33.1199 44.1289 26.4018 44.1289Z" fill="#CCCCCC"/>
</svg>
