<svg width="265" height="66" viewBox="0 0 265 66" fill="none" xmlns="http://www.w3.org/2000/svg">
<path d="M84.6719 51.7261L87.9777 44.1947C91.5501 46.8098 96.2956 48.1696 100.988 48.1696C104.454 48.1696 106.64 46.8621 106.64 44.8746C106.586 39.3307 85.8982 43.6717 85.7383 29.7595C85.685 22.6988 92.0833 17.2594 101.148 17.2594C106.533 17.2594 111.918 18.567 115.757 21.5481L112.665 29.2365C109.146 27.0398 104.773 25.4708 100.615 25.4708C97.7886 25.4708 95.9224 26.7783 95.9224 28.4519C95.9757 33.8913 116.824 30.9101 117.037 44.1947C117.037 51.4123 110.799 56.4856 101.841 56.4856C95.2825 56.4856 89.2574 54.9688 84.6719 51.7261ZM211.52 41.475L220.638 46.4437C217.225 52.4583 210.72 56.4856 203.202 56.4856C192.165 56.4856 183.207 47.6989 183.207 36.8725C183.207 26.0461 192.165 17.2594 203.202 17.2594C210.667 17.2594 217.225 21.3389 220.638 27.3013L211.52 32.27C209.867 29.4457 206.774 27.5105 203.202 27.5105C197.923 27.5105 193.658 31.6946 193.658 36.8725C193.658 42.0503 197.923 46.2345 203.202 46.2345C206.774 46.2345 209.867 44.2993 211.52 41.475ZM121.623 0.993652H133.033V55.7533H121.623V0.993652ZM225.117 0.993652H236.527V33.1591L249.43 18.0439H263.4L247.458 36.2449L264.68 55.7533H250.07L236.527 39.3307V55.7533H225.117V0.993652ZM166.945 41.5796V32.3223C165.292 29.6026 161.879 27.5105 158.04 27.5105C152.761 27.5105 148.496 31.6946 148.496 36.8725C148.496 42.0503 152.761 46.2345 158.04 46.2345C161.879 46.2345 165.292 44.247 166.945 41.5796ZM166.945 18.0439H178.355V55.701H166.945V51.2554C165.078 54.3412 160.439 56.4856 155.587 56.4856C145.563 56.4856 137.672 47.6989 137.672 36.8202C137.672 25.9415 145.563 17.2594 155.587 17.2594C160.439 17.2594 165.078 19.4038 166.945 22.4896V18.0439Z" fill="#CCCCCC"/>
<path d="M14.1321 41.5273C14.1321 45.3453 10.9862 48.4311 7.09389 48.4311C3.20154 48.4311 0.0556641 45.3453 0.0556641 41.5273C0.0556641 37.7093 3.20154 34.6235 7.09389 34.6235H14.1321V41.5273ZM17.6512 41.5273C17.6512 37.7093 20.7971 34.6235 24.6895 34.6235C28.5818 34.6235 31.7277 37.7093 31.7277 41.5273V58.7868C31.7277 62.6048 28.5818 65.6906 24.6895 65.6906C20.7971 65.6906 17.6512 62.6048 17.6512 58.7868V41.5273Z" fill="#CCCCCC"/>
<path d="M24.6871 13.8076C20.7948 13.8076 17.6489 10.7218 17.6489 6.9038C17.6489 3.08579 20.7948 0 24.6871 0C28.5795 0 31.7254 3.08579 31.7254 6.9038V13.8076H24.6871ZM24.6871 17.3118C28.5795 17.3118 31.7254 20.3976 31.7254 24.2156C31.7254 28.0336 28.5795 31.1194 24.6871 31.1194H7.03823C3.14588 31.1194 0 28.0336 0 24.2156C0 20.3976 3.14588 17.3118 7.03823 17.3118H24.6871Z" fill="#CCCCCC"/>
<path d="M52.8934 24.2156C52.8934 20.3976 56.0393 17.3118 59.9317 17.3118C63.824 17.3118 66.9699 20.3976 66.9699 24.2156C66.9699 28.0336 63.824 31.1194 59.9317 31.1194H52.8934V24.2156ZM49.3743 24.2156C49.3743 28.0336 46.2284 31.1194 42.3361 31.1194C38.4437 31.1194 35.2979 28.0336 35.2979 24.2156V6.9038C35.2979 3.08579 38.4437 0 42.3361 0C46.2284 0 49.3743 3.08579 49.3743 6.9038V24.2156Z" fill="#CCCCCC"/>
<path d="M42.3361 51.883C46.2284 51.883 49.3743 54.9688 49.3743 58.7868C49.3743 62.6048 46.2284 65.6906 42.3361 65.6906C38.4437 65.6906 35.2979 62.6048 35.2979 58.7868V51.883H42.3361ZM42.3361 48.4311C38.4437 48.4311 35.2979 45.3453 35.2979 41.5273C35.2979 37.7093 38.4437 34.6235 42.3361 34.6235H59.985C63.8773 34.6235 67.0232 37.7093 67.0232 41.5273C67.0232 45.3453 63.8773 48.4311 59.985 48.4311H42.3361Z" fill="#CCCCCC"/>
</svg>
