<svg width="221" height="66" viewBox="0 0 221 66" fill="none" xmlns="http://www.w3.org/2000/svg">
<path d="M60.4759 41.6825C56.8843 41.6825 53.5191 40.1627 50.4614 37.6889L51.2056 34.1964L51.238 34.0671C51.9013 30.3483 54.0045 24.1073 60.4759 24.1073C65.3295 24.1073 69.2771 28.0524 69.2771 32.903C69.2609 37.7374 65.3134 41.6825 60.4759 41.6825ZM60.4759 15.1984C52.2087 15.1984 45.8019 20.5663 43.1972 29.3944C39.2172 23.4282 36.208 16.2655 34.4446 10.2346H25.5463V33.3719C25.5463 37.9314 21.8252 41.6502 17.2629 41.6502C12.7005 41.6502 8.9794 37.9314 8.9794 33.3719V10.2346H0.0811561V33.3719C0.0487988 42.8466 7.766 50.6237 17.2467 50.6237C26.7273 50.6237 34.4446 42.8466 34.4446 33.3719V29.4914C36.1757 33.097 38.2951 36.7349 40.8675 39.9686L35.4153 65.5797H44.5238L48.4714 47.002C51.9336 49.2171 55.9136 50.6076 60.4759 50.6076C70.2317 50.6076 78.1754 42.6203 78.1754 32.8706C78.1754 23.1371 70.2317 15.1984 60.4759 15.1984Z" fill="#CCCCCC"/>
<path d="M105.339 16.2009L111.082 39.3382L117.408 16.2009H124.947L115.224 49.6376H107.685L101.715 26.3548L95.7611 49.6214H88.2219L78.4985 16.1848H86.0378L92.3636 39.322L98.107 16.1848H105.339V16.2009ZM142.987 15.1985C133.198 15.1985 125.271 23.1373 125.271 32.9031C125.271 42.6851 133.215 50.6077 142.987 50.6077C152.775 50.6077 160.718 42.6851 160.718 32.9031C160.718 23.1211 152.775 15.1985 142.987 15.1985ZM142.987 43.3318C137.227 43.3318 132.567 38.6753 132.567 32.9192C132.567 27.1632 137.243 22.5067 142.987 22.5067C148.746 22.5067 153.406 27.1632 153.406 32.9192C153.406 38.6591 148.746 43.3318 142.987 43.3318ZM182.252 23.687C177.188 23.687 173.095 27.7938 173.095 32.8384V49.6214H165.507V16.2009H173.095V21.3425C173.095 21.3425 176.331 16.1848 182.98 16.1848H185.31V23.687H182.252ZM207.717 31.6096C213.105 28.5699 216.761 22.7977 216.761 16.1848H209.173C209.173 21.7629 204.643 26.2901 199.062 26.2901H198.042V0.0646973H190.455V49.6214H198.042V33.8732H198.948C199.693 33.8732 200.663 34.3582 201.1 34.9565L211.875 49.6214H220.967L207.717 31.6096Z" fill="#CCCCCC"/>
</svg>
