<svg width="235" height="66" viewBox="0 0 235 66" fill="none" xmlns="http://www.w3.org/2000/svg">
<path d="M0 15.9724H13.9874L22.1072 36.8914L30.3455 15.9724H43.9773L23.4704 65.5583H9.77932L15.4098 52.4466L0 15.9724ZM58.1425 15.138C47.652 15.138 41.0139 24.6141 41.0139 34.0307C41.0139 44.6392 48.3039 53.0426 57.9647 53.0426C65.1955 53.0426 67.9218 48.6323 67.9218 48.6323V52.089H80.1311V15.9724H67.9218V19.2503C67.8625 19.2503 64.8399 15.138 58.1425 15.138ZM60.7503 26.7597C65.6103 26.7597 68.0996 30.6336 68.0996 34.0903C68.0996 37.845 65.4325 41.5401 60.7503 41.5401C56.8979 41.5401 53.401 38.3814 53.401 34.2691C53.401 30.0972 56.1866 26.7597 60.7503 26.7597ZM84.2799 52.089V0H97.0227V19.3695C97.0227 19.3695 100.045 15.138 106.387 15.138C114.151 15.138 118.715 20.9786 118.715 29.2628V52.089H106.032V32.3619C106.032 29.5608 104.728 26.8193 101.705 26.8193C98.623 26.8193 97.0227 29.5608 97.0227 32.3619V52.089H84.2799ZM140.467 15.138C128.435 15.138 121.264 24.3161 121.264 34.2095C121.264 45.414 129.917 53.1022 140.526 53.1022C150.779 53.1022 159.729 45.7716 159.729 34.3883C159.729 21.9322 150.305 15.138 140.467 15.138ZM140.585 26.8193C144.852 26.8193 147.757 30.3952 147.757 34.1499C147.757 37.3682 145.03 41.3613 140.585 41.3613C136.496 41.3613 133.473 38.0834 133.473 34.0903C133.473 30.3356 135.962 26.8193 140.585 26.8193ZM180.947 15.138C168.916 15.138 161.744 24.3161 161.744 34.2095C161.744 45.414 170.397 53.1022 181.006 53.1022C191.26 53.1022 200.209 45.7716 200.209 34.3883C200.209 21.9322 190.845 15.138 180.947 15.138ZM181.066 26.8193C185.333 26.8193 188.237 30.3952 188.237 34.1499C188.237 37.3682 185.511 41.3613 181.066 41.3613C176.976 41.3613 173.953 38.0834 173.953 34.0903C173.953 30.3356 176.502 26.8193 181.066 26.8193ZM210.285 35.8186C214.967 35.8186 218.76 39.6329 218.76 44.3412C218.76 49.0495 214.967 52.8638 210.285 52.8638C205.603 52.8638 201.81 49.0495 201.81 44.3412C201.81 39.6329 205.603 35.8186 210.285 35.8186ZM221.546 32.7195H206.314L219.827 0H235L221.546 32.7195Z" fill="#CCCCCC"/>
</svg>
