<svg width="40" height="40" viewBox="0 0 40 40" fill="none" xmlns="http://www.w3.org/2000/svg">
<path d="M35.8167 7.88351L28.3333 3.61685C28.08 3.47057 27.7926 3.39355 27.5 3.39355C27.2074 3.39355 26.92 3.47057 26.6667 3.61685L20 7.41685L13.3333 3.61685C13.08 3.47057 12.7926 3.39355 12.5 3.39355C12.2074 3.39355 11.92 3.47057 11.6667 3.61685L4.18333 7.88351C3.92589 8.02822 3.71152 8.23874 3.56217 8.49352C3.41281 8.7483 3.33384 9.03819 3.33333 9.33351V17.8668C3.33384 18.1622 3.41281 18.4521 3.56217 18.7068C3.71152 18.9616 3.92589 19.1721 4.18333 19.3168L10.85 23.1002V30.6668C10.8505 30.9622 10.9295 31.2521 11.0788 31.5068C11.2282 31.7616 11.4426 31.9721 11.7 32.1168L19.2 36.3835C19.4534 36.5298 19.7408 36.6068 20.0333 36.6068C20.3259 36.6068 20.6133 36.5298 20.8667 36.3835L28.3333 32.1168C28.5908 31.9721 28.8051 31.7616 28.9545 31.5068C29.1039 31.2521 29.1828 30.9622 29.1833 30.6668V23.1002L35.85 19.3168C36.1074 19.1721 36.3218 18.9616 36.4712 18.7068C36.6205 18.4521 36.6995 18.1622 36.7 17.8668V9.33351C36.6962 9.03484 36.6122 8.74268 36.4568 8.4876C36.3014 8.23251 36.0803 8.02387 35.8167 7.88351ZM6.66667 16.9002V10.2335L12.5 6.90018L18.3333 10.2335V16.9002L12.5 20.2335L6.66667 16.9002ZM25.8333 29.7002L20 33.0335L14.1667 29.7002V23.0335L20 19.7002L25.8333 23.0335V29.7002ZM33.3333 16.9002L27.5 20.2335L21.6667 16.9002V10.2335L27.5 6.90018L33.3333 10.2335V16.9002Z" fill="#1089FF"/>
</svg>
