<svg width="40" height="40" viewBox="0 0 40 40" fill="none" xmlns="http://www.w3.org/2000/svg">
<path d="M35 33.3336H30C29.558 33.3336 29.134 33.158 28.8215 32.8454C28.5089 32.5329 28.3333 32.1089 28.3333 31.6669V26.6669C30.3227 26.6485 32.2399 25.9191 33.7383 24.6104C35.2367 23.3017 36.2174 21.5001 36.5033 19.5313C36.7892 17.5625 36.3612 15.5564 35.2969 13.8756C34.2325 12.1948 32.602 10.9503 30.7 10.3669C29.6817 8.02691 27.9241 6.08536 25.6968 4.83978C23.4694 3.59419 20.8951 3.11329 18.3683 3.47075C15.8415 3.82821 13.5015 5.00432 11.7071 6.81886C9.91264 8.63339 8.76265 10.9863 8.43333 13.5169C6.84431 13.8974 5.45037 14.8483 4.51623 16.1889C3.58209 17.5295 3.17281 19.1664 3.36611 20.7889C3.55941 22.4114 4.34182 23.9064 5.56478 24.99C6.78773 26.0736 8.36605 26.6703 10 26.6669H11.6667V31.6669C11.6667 32.1089 11.4911 32.5329 11.1785 32.8454C10.866 33.158 10.442 33.3336 10 33.3336H5C4.55797 33.3336 4.13405 33.5092 3.82149 33.8217C3.50893 34.1343 3.33333 34.5582 3.33333 35.0002C3.33333 35.4423 3.50893 35.8662 3.82149 36.1787C4.13405 36.4913 4.55797 36.6669 5 36.6669H10C11.3261 36.6669 12.5979 36.1401 13.5355 35.2024C14.4732 34.2648 15 32.993 15 31.6669V26.6669H18.3333V35.0002C18.3333 35.4423 18.5089 35.8662 18.8215 36.1787C19.134 36.4913 19.558 36.6669 20 36.6669C20.442 36.6669 20.8659 36.4913 21.1785 36.1787C21.4911 35.8662 21.6667 35.4423 21.6667 35.0002V26.6669H25V31.6669C25 32.993 25.5268 34.2648 26.4645 35.2024C27.4021 36.1401 28.6739 36.6669 30 36.6669H35C35.442 36.6669 35.866 36.4913 36.1785 36.1787C36.4911 35.8662 36.6667 35.4423 36.6667 35.0002C36.6667 34.5582 36.4911 34.1343 36.1785 33.8217C35.866 33.5092 35.442 33.3336 35 33.3336ZM10 23.3336C9.11595 23.3336 8.2681 22.9824 7.64298 22.3573C7.01786 21.7321 6.66667 20.8843 6.66667 20.0002C6.66667 19.1162 7.01786 18.2683 7.64298 17.6432C8.2681 17.0181 9.11595 16.6669 10 16.6669C10.442 16.6669 10.866 16.4913 11.1785 16.1787C11.4911 15.8662 11.6667 15.4423 11.6667 15.0002C11.6709 13.029 12.3738 11.1232 13.6504 9.6212C14.9271 8.11926 16.6948 7.11848 18.6396 6.79669C20.5843 6.47489 22.5802 6.85291 24.2726 7.86358C25.965 8.87425 27.2443 10.4521 27.8833 12.3169C27.9786 12.6033 28.1499 12.8585 28.3788 13.0551C28.6078 13.2518 28.8858 13.3826 29.1833 13.4336C30.3403 13.6331 31.3901 14.2335 32.1489 15.1293C32.9076 16.0252 33.3269 17.1596 33.3333 18.3336C33.3333 19.6596 32.8066 20.9314 31.8689 21.8691C30.9312 22.8068 29.6594 23.3336 28.3333 23.3336H10Z" fill="#1089FF"/>
</svg>
