<svg width="36" height="36" viewBox="0 0 36 36" fill="none" xmlns="http://www.w3.org/2000/svg">
<path d="M18 1.19531C27.2812 1.19531 34.7906 8.70469 34.7906 17.9719C34.7906 27.2391 27.2812 34.7625 18 34.7625C8.71873 34.7625 1.20935 27.2531 1.20935 17.9859C1.20935 8.71875 8.71873 1.19531 18 1.19531Z" fill="#E74D89"/>
<path d="M18 35.9578C8.07188 35.9578 0 27.9 0 17.9859C0 8.05781 8.07188 0 18 0C27.9281 0 36 8.05781 36 17.9719C36 27.8859 27.9281 35.9578 18 35.9578ZM33.1734 20.4328C32.6531 20.2641 28.4203 19.0125 23.5969 19.7719C25.6078 25.2844 26.4234 29.7844 26.5781 30.7125C30.0375 28.3922 32.4984 24.7078 33.1734 20.4328ZM24.0047 32.1328C23.7797 30.7828 22.8797 26.0859 20.7281 20.4891C20.7 20.5031 20.6578 20.5172 20.6297 20.5172C11.9531 23.5406 8.84531 29.5453 8.56406 30.1078C11.1656 32.1328 14.4422 33.3422 18 33.3422C20.1234 33.3563 22.1625 32.9203 24.0047 32.1328ZM6.58125 28.2656C6.93281 27.675 11.1516 20.7 19.0828 18.1266C19.2797 18.0562 19.4906 18 19.6875 17.9438C19.3078 17.0719 18.8859 16.2 18.4359 15.3422C10.7578 17.6344 3.30469 17.5359 2.62969 17.5219C2.62969 17.6766 2.61563 17.8313 2.61563 17.9859C2.62969 21.9375 4.12031 25.5375 6.58125 28.2656ZM2.95312 14.85C3.64219 14.8641 9.97031 14.8922 17.1703 12.9797C14.625 8.45156 11.8687 4.65469 11.475 4.10625C7.15781 6.13125 3.95156 10.0969 2.95312 14.85ZM14.4 3.06562C14.8219 3.62812 17.6203 7.425 20.1375 12.0516C25.6078 9.99844 27.9141 6.90469 28.1953 6.51094C25.4813 4.10625 21.9094 2.64375 18 2.64375C16.7625 2.64375 15.5531 2.79844 14.4 3.06562ZM29.8969 8.28281C29.5734 8.71875 27 12.0234 21.3188 14.3438C21.6703 15.075 22.0219 15.8203 22.3453 16.5656C22.4578 16.8328 22.5703 17.1 22.6828 17.3531C27.8016 16.7063 32.8781 17.7469 33.3844 17.8453C33.3422 14.2312 32.0484 10.8984 29.8969 8.28281Z" fill="#B2215A"/>
</svg>
