<svg width="40" height="40" viewBox="0 0 40 40" fill="none" xmlns="http://www.w3.org/2000/svg">
<path d="M5.16999 34.8301C6.33333 35.9951 7.99666 36.6101 9.98166 36.6101C12.885 36.6101 16.4067 35.3135 20.0017 33.0651C23.595 35.3151 27.1183 36.6101 30.0217 36.6101C32.005 36.6101 33.6683 35.9951 34.8333 34.8301C36.9483 32.7151 37.185 29.1418 35.5017 24.7651C34.905 23.2118 34.0783 21.6068 33.0733 20.0001C34.033 18.493 34.8462 16.8973 35.5017 15.2351C37.185 10.8585 36.9467 7.28347 34.8333 5.17014C33.67 4.00514 32.0067 3.39014 30.0217 3.39014C27.1183 3.39014 23.5967 4.6868 20.0017 6.93514C16.4083 4.68514 12.885 3.39014 9.98166 3.39014C7.99832 3.39014 6.33499 4.00514 5.16999 5.17014C3.05499 7.28514 2.81666 10.8585 4.49999 15.2351C5.09833 16.7885 5.92333 18.3935 6.92833 20.0001C5.96863 21.5073 5.15547 23.1029 4.49999 24.7651C2.81666 29.1418 3.05499 32.7151 5.16999 34.8301ZM32.3883 25.9618C33.5367 28.9451 33.5683 31.3801 32.475 32.4735C31.9417 33.0068 31.1167 33.2768 30.02 33.2768C28.075 33.2768 25.61 32.4385 23.0067 30.9768C25.9923 28.669 28.6711 25.9896 30.9783 23.0035C31.5383 24.0051 32.0167 24.9968 32.3883 25.9618ZM20 29.0285C18.26 27.7845 16.6246 26.4004 15.11 24.8901C13.5922 23.3745 12.1988 21.7392 10.9433 20.0001C13.4527 16.5195 16.5115 13.4703 20 10.9718C21.7399 12.2158 23.3754 13.5999 24.89 15.1101C26.4078 16.6258 27.8011 18.261 29.0567 20.0001C26.5473 23.4808 23.4885 26.53 20 29.0285ZM30.02 6.72347C31.115 6.72347 31.94 6.99347 32.475 7.5268C33.5683 8.62014 33.5383 11.0551 32.3883 14.0385C32.0167 15.0035 31.5383 15.9951 30.9783 16.9968C28.6734 14.0087 25.9942 11.3291 23.0067 9.02347C25.61 7.56347 28.075 6.72347 30.02 6.72347ZM7.61166 14.0385C6.46333 11.0551 6.43166 8.62014 7.52499 7.5268C8.05833 6.99347 8.88333 6.72347 9.97999 6.72347C11.925 6.72347 14.39 7.5618 16.9933 9.02347C14.0058 11.3291 11.3266 14.0087 9.02166 16.9968C8.48258 16.0451 8.01141 15.0566 7.61166 14.0385ZM7.61166 25.9618C7.98333 24.9968 8.46166 24.0051 9.02166 23.0035C11.3266 25.9915 14.0058 28.6712 16.9933 30.9768C14.3883 32.4385 11.925 33.2768 9.97999 33.2768C8.88499 33.2768 8.05999 33.0068 7.52499 32.4735C6.43166 31.3801 6.46333 28.9451 7.61166 25.9618Z" fill="#1089FF"/>
<path d="M20 24.2902C22.3693 24.2902 24.29 22.3695 24.29 20.0002C24.29 17.6309 22.3693 15.7102 20 15.7102C17.6307 15.7102 15.71 17.6309 15.71 20.0002C15.71 22.3695 17.6307 24.2902 20 24.2902Z" fill="#1089FF"/>
</svg>
