<svg width="40" height="40" viewBox="0 0 40 40" fill="none" xmlns="http://www.w3.org/2000/svg">
<path d="M30.4617 13.3333C31.04 14.3267 32.1033 15 33.3333 15C34.2174 15 35.0652 14.6488 35.6903 14.0237C36.3155 13.3986 36.6667 12.5507 36.6667 11.6667C36.6667 10.7826 36.3155 9.93476 35.6903 9.30964C35.0652 8.68452 34.2174 8.33333 33.3333 8.33333C32.1033 8.33333 31.04 9.00667 30.4617 10H26.6667V6.66667C26.6667 6.22464 26.4911 5.80072 26.1785 5.48816C25.8659 5.17559 25.442 5 25 5H15C14.558 5 14.134 5.17559 13.8215 5.48816C13.5089 5.80072 13.3333 6.22464 13.3333 6.66667V10H9.53833C8.95999 9.00667 7.89666 8.33333 6.66666 8.33333C5.78261 8.33333 4.93476 8.68452 4.30964 9.30964C3.68452 9.93476 3.33333 10.7826 3.33333 11.6667C3.33333 12.5507 3.68452 13.3986 4.30964 14.0237C4.93476 14.6488 5.78261 15 6.66666 15C7.89666 15 8.95999 14.3267 9.53833 13.3333H13.3333V13.9483C8.55499 16.4 7.19666 20.89 6.81833 23.3333H4.99999C4.55797 23.3333 4.13404 23.5089 3.82148 23.8215C3.50892 24.134 3.33333 24.558 3.33333 25V31.6667C3.33333 32.1087 3.50892 32.5326 3.82148 32.8452C4.13404 33.1577 4.55797 33.3333 4.99999 33.3333H11.6667C12.1087 33.3333 12.5326 33.1577 12.8452 32.8452C13.1577 32.5326 13.3333 32.1087 13.3333 31.6667V25C13.3333 24.558 13.1577 24.134 12.8452 23.8215C12.5326 23.5089 12.1087 23.3333 11.6667 23.3333H10.205C10.5333 21.735 11.4017 19.3233 13.68 17.6367C13.8292 17.8489 14.0267 18.0228 14.2561 18.1439C14.4856 18.265 14.7405 18.3299 15 18.3333H25C25.2597 18.3303 25.5149 18.2653 25.7445 18.1439C25.974 18.0224 26.1713 17.848 26.32 17.635C28.6083 19.3233 29.4783 21.7317 29.8017 23.3333H28.3333C27.8913 23.3333 27.4674 23.5089 27.1548 23.8215C26.8423 24.134 26.6667 24.558 26.6667 25V31.6667C26.6667 32.1087 26.8423 32.5326 27.1548 32.8452C27.4674 33.1577 27.8913 33.3333 28.3333 33.3333H35C35.442 33.3333 35.8659 33.1577 36.1785 32.8452C36.4911 32.5326 36.6667 32.1087 36.6667 31.6667V25C36.6667 24.558 36.4911 24.134 36.1785 23.8215C35.8659 23.5089 35.442 23.3333 35 23.3333H33.18C32.8017 20.89 31.4433 16.3983 26.6667 13.9467V13.3333H30.4617ZM9.99999 30H6.66666V26.6667H9.99999V30ZM33.3333 30H30V26.6667H33.3333V30ZM23.3333 15H16.6667V8.33333H23.3333V15Z" fill="#1089FF"/>
</svg>
