<svg width="40" height="40" viewBox="0 0 40 40" fill="none" xmlns="http://www.w3.org/2000/svg">
<path d="M31.6668 20.0002H20.0001V8.3335C20.0001 7.3335 19.3334 6.66683 18.3334 6.66683C10.0001 6.66683 3.33344 13.3335 3.33344 21.6668C3.33344 30.0002 10.0001 36.6668 18.3334 36.6668C26.6668 36.6668 33.3334 30.0002 33.3334 21.6668C33.3334 20.6668 32.6668 20.0002 31.6668 20.0002ZM20.0001 33.1668C13.6668 34.1668 7.66677 29.6668 6.83344 23.3335C5.83344 17.0002 10.3334 11.0002 16.6668 10.1668V21.6668C16.6668 22.6668 17.3334 23.3335 18.3334 23.3335H29.8334C29.1668 28.5002 25.1668 32.5002 20.0001 33.1668ZM25.0001 3.3335C24.0001 3.3335 23.3334 4.00016 23.3334 5.00016V15.0002C23.3334 16.0002 24.0001 16.6668 25.0001 16.6668H35.0001C36.0001 16.6668 36.6668 16.0002 36.6668 15.0002C36.6668 8.50016 31.5001 3.3335 25.0001 3.3335ZM26.6668 13.3335V6.8335C30.0001 7.50016 32.5001 10.0002 33.1668 13.3335H26.6668Z" fill="#1089FF"/>
</svg>
