<svg width="40" height="40" viewBox="0 0 40 40" fill="none" xmlns="http://www.w3.org/2000/svg">
<path d="M23.3701 11.6669H25.0368C25.4787 11.6673 25.9024 11.843 26.2148 12.1555C26.5273 12.468 26.703 12.8916 26.7035 13.3335V15.0002C26.7035 15.4422 26.8791 15.8662 27.1916 16.1787C27.5042 16.4913 27.9281 16.6669 28.3701 16.6669C28.8122 16.6669 29.2361 16.4913 29.5486 16.1787C29.8612 15.8662 30.0368 15.4422 30.0368 15.0002V13.3335C30.0355 12.0079 29.5083 10.7369 28.5709 9.79947C27.6335 8.86207 26.3625 8.33486 25.0368 8.33354H23.3701C22.9281 8.33354 22.5042 8.50913 22.1916 8.82169C21.8791 9.13425 21.7035 9.55818 21.7035 10.0002C21.7035 10.4422 21.8791 10.8662 22.1916 11.1787C22.5042 11.4913 22.9281 11.6669 23.3701 11.6669ZM16.7035 26.6669H15.0368C14.5949 26.6664 14.1712 26.4907 13.8588 26.1782C13.5463 25.8658 13.3706 25.4421 13.3701 25.0002V23.3335C13.3701 22.8915 13.1945 22.4676 12.882 22.155C12.5694 21.8425 12.1455 21.6669 11.7035 21.6669C11.2614 21.6669 10.8375 21.8425 10.525 22.155C10.2124 22.4676 10.0368 22.8915 10.0368 23.3335V25.0002C10.0381 26.3259 10.5653 27.5969 11.5027 28.5343C12.4401 29.4717 13.7111 29.9989 15.0368 30.0002H16.7035C17.1455 30.0002 17.5694 29.8246 17.882 29.5121C18.1945 29.1995 18.3701 28.7756 18.3701 28.3335C18.3701 27.8915 18.1945 27.4676 17.882 27.155C17.5694 26.8425 17.1455 26.6669 16.7035 26.6669ZM35.0368 25.0002C35.4788 25.0002 35.9027 24.8246 36.2153 24.512C36.5279 24.1995 36.7035 23.7756 36.7035 23.3335C36.7035 22.8915 36.5279 22.4676 36.2153 22.155C35.9027 21.8425 35.4788 21.6669 35.0368 21.6669H30.0368V20.8335C30.0368 20.3915 29.8612 19.9676 29.5486 19.655C29.2361 19.3425 28.8122 19.1669 28.3701 19.1669C27.9281 19.1669 27.5042 19.3425 27.1916 19.655C26.8791 19.9676 26.7035 20.3915 26.7035 20.8335V21.6669H21.7035C21.2614 21.6669 20.8375 21.8425 20.525 22.155C20.2124 22.4676 20.0368 22.8915 20.0368 23.3335C20.0368 23.7756 20.2124 24.1995 20.525 24.512C20.8375 24.8246 21.2614 25.0002 21.7035 25.0002H30.3435C29.9667 26.5321 29.271 27.9672 28.3018 29.2119C27.9046 28.6975 27.5532 28.1493 27.2518 27.5735C27.1559 27.3722 27.0206 27.1922 26.8539 27.0441C26.6872 26.8961 26.4925 26.7829 26.2813 26.7115C26.0701 26.64 25.8467 26.6116 25.6243 26.6281C25.402 26.6445 25.1852 26.7054 24.9868 26.8071C24.7883 26.9088 24.6124 27.0493 24.4692 27.2202C24.3261 27.3912 24.2187 27.5891 24.1534 27.8023C24.0882 28.0155 24.0663 28.2397 24.0892 28.4615C24.1121 28.6832 24.1793 28.8982 24.2868 29.0935C24.7361 29.961 25.2722 30.7808 25.8868 31.5402C24.6771 32.4184 23.3014 33.0416 21.8435 33.3719C21.4116 33.4662 21.0349 33.7283 20.7963 34.1004C20.5576 34.4725 20.4766 34.9242 20.571 35.356C20.6653 35.7879 20.9274 36.1646 21.2995 36.4032C21.6716 36.6419 22.1233 36.7229 22.5551 36.6285C24.6463 36.1659 26.6079 35.2423 28.2968 33.9252C30 35.2434 31.9748 36.1668 34.0785 36.6285C34.5103 36.7236 34.9622 36.6432 35.3348 36.405C35.7074 36.1668 35.9701 35.7904 36.0651 35.3585C36.1602 34.9267 36.0798 34.4748 35.8416 34.1022C35.6034 33.7296 35.227 33.4669 34.7951 33.3719C33.3282 33.0457 31.9418 32.4279 30.7185 31.5552C32.2599 29.6585 33.299 27.4042 33.7401 25.0002H35.0368ZM15.0868 18.7385C15.1968 19.1645 15.4707 19.5298 15.8489 19.7546C16.2271 19.9794 16.6788 20.0456 17.1056 19.9387C17.5324 19.8318 17.8996 19.5605 18.1271 19.1839C18.3546 18.8073 18.424 18.3561 18.3201 17.9285L15.3918 6.21187C15.1863 5.3892 14.7117 4.65884 14.0433 4.13694C13.375 3.61503 12.5514 3.33154 11.7035 3.33154C10.8555 3.33154 10.0319 3.61503 9.36359 4.13694C8.69528 4.65884 8.22064 5.3892 8.01513 6.21187L5.0868 17.9285C4.98294 18.3561 5.05233 18.8073 5.27986 19.1839C5.50738 19.5605 5.87457 19.8318 6.30135 19.9387C6.72813 20.0456 7.17987 19.9794 7.55805 19.7546C7.93623 19.5298 8.21017 19.1645 8.32013 18.7385L9.25347 15.0002H14.1535L15.0868 18.7385ZM10.0868 11.6669L11.2501 7.02187C11.2851 6.92994 11.3472 6.85081 11.4281 6.79498C11.5091 6.73915 11.6051 6.70925 11.7035 6.70925C11.8018 6.70925 11.8978 6.73915 11.9788 6.79498C12.0598 6.85081 12.1218 6.92994 12.1568 7.02187L13.3185 11.6669H10.0868Z" fill="#1089FF"/>
</svg>
