<svg width="36" height="36" viewBox="0 0 36 36" fill="none" xmlns="http://www.w3.org/2000/svg">
<path fill-rule="evenodd" clip-rule="evenodd" d="M22.9501 5.748C24.2101 4.227 25.0561 2.1075 24.8251 0C23.0131 0.0735 20.8201 1.2075 19.5226 2.7285C18.3571 4.0755 17.3371 6.231 17.6131 8.2965C19.6321 8.454 21.6961 7.2705 22.9531 5.748H22.9501ZM27.4831 19.125C27.5341 24.573 32.2621 26.3865 32.3131 26.4105C32.2756 26.538 31.5601 28.9935 29.8231 31.53C28.3231 33.723 26.7661 35.9085 24.3121 35.9535C21.9016 35.997 21.1276 34.524 18.3706 34.524C15.6166 34.524 14.7556 35.9085 12.4726 35.997C10.1056 36.087 8.30256 33.6255 6.78756 31.4415C3.69756 26.9715 1.33506 18.8115 4.50756 13.3035C6.08106 10.5675 8.89806 8.835 11.9551 8.7915C14.2801 8.7465 16.4746 10.356 17.8951 10.356C19.3171 10.356 21.9841 8.421 24.7876 8.7045C25.9621 8.754 29.2561 9.1785 31.3726 12.276C31.2016 12.381 27.4411 14.571 27.4816 19.125" fill="#194350"/>
</svg>
