<svg width="36" height="36" viewBox="0 0 36 36" fill="none" xmlns="http://www.w3.org/2000/svg">
<path d="M11.3085 33.7499C24.894 33.7499 32.3257 22.4931 32.3257 12.7484C32.3257 12.4334 32.3257 12.1139 32.3122 11.7989C33.7591 10.7514 35.0079 9.45469 36 7.96935C34.6485 8.56526 33.2162 8.95801 31.7498 9.13485C33.2944 8.21154 34.4514 6.75878 35.0055 5.0466C33.5542 5.90638 31.9658 6.50994 30.3097 6.83085C29.1964 5.64515 27.7232 4.85967 26.1182 4.59605C24.5132 4.33244 22.8661 4.60542 21.432 5.37271C19.9979 6.14 18.8568 7.35877 18.1855 8.84024C17.5142 10.3217 17.3502 11.9832 17.7188 13.5674C14.7819 13.4201 11.9088 12.6572 9.28585 11.328C6.66286 9.99889 4.34854 8.13325 2.493 5.8521C1.55102 7.47904 1.26354 9.4035 1.68895 11.2347C2.11437 13.0659 3.22077 14.6665 4.7835 15.7116C3.61246 15.6718 2.46717 15.3574 1.44 14.7936V14.8949C1.44202 16.5992 2.03244 18.2505 3.11147 19.5698C4.19049 20.8891 5.69193 21.7953 7.362 22.1354C6.72809 22.31 6.07327 22.397 5.41575 22.3941C4.95221 22.3955 4.48961 22.3526 4.03425 22.2659C4.50627 23.733 5.42536 25.0157 6.66281 25.9344C7.90025 26.8531 9.39405 27.3618 10.935 27.3891C8.31725 29.4452 5.08365 30.5603 1.755 30.5549C1.16847 30.5573 0.582352 30.5235 0 30.4536C3.37841 32.6074 7.30192 33.7511 11.3085 33.7499Z" fill="#1DA1F2"/>
</svg>
