<svg width="40" height="40" viewBox="0 0 40 40" fill="none" xmlns="http://www.w3.org/2000/svg">
<path d="M33.3183 3.33667C32.8763 3.33667 32.4524 3.51226 32.1398 3.82483C31.8272 4.13739 31.6516 4.56131 31.6516 5.00334V6.065C30.246 7.80777 28.4694 9.21518 26.4512 10.1848C24.433 11.1544 22.224 11.6618 19.985 11.67H9.98499C8.65931 11.6713 7.38831 12.1985 6.45091 13.1359C5.51352 14.0733 4.98631 15.3443 4.98499 16.67V20.0033C4.98631 21.329 5.51352 22.6 6.45091 23.5374C7.38831 24.4748 8.65931 25.002 9.98499 25.0033H10.7917L6.78665 34.3467C6.67793 34.6003 6.63388 34.8769 6.65846 35.1518C6.68304 35.4266 6.77547 35.6911 6.92747 35.9214C7.07946 36.1517 7.28627 36.3406 7.52931 36.4713C7.77236 36.602 8.04404 36.6702 8.31999 36.67H14.9867C15.3125 36.6699 15.6312 36.5741 15.9032 36.3945C16.1751 36.215 16.3885 35.9596 16.5167 35.66L21.0567 25.0667C23.1076 25.2173 25.106 25.7868 26.9282 26.7399C28.7505 27.6931 30.3581 29.0096 31.6516 30.6083V31.67C31.6516 32.112 31.8272 32.536 32.1398 32.8485C32.4524 33.1611 32.8763 33.3367 33.3183 33.3367C33.7603 33.3367 34.1843 33.1611 34.4968 32.8485C34.8094 32.536 34.985 32.112 34.985 31.67V5.00334C34.985 4.56131 34.8094 4.13739 34.4968 3.82483C34.1843 3.51226 33.7603 3.33667 33.3183 3.33667ZM9.98499 21.67C9.54296 21.67 9.11903 21.4944 8.80647 21.1818C8.49391 20.8693 8.31832 20.4454 8.31832 20.0033V16.67C8.31832 16.228 8.49391 15.8041 8.80647 15.4915C9.11903 15.1789 9.54296 15.0033 9.98499 15.0033H11.6517V21.67H9.98499ZM13.8867 33.3367H10.8467L14.4167 25.0033H17.4583L13.8867 33.3367ZM31.6533 25.8733C28.3671 23.1659 24.2445 21.6806 19.9867 21.67H14.9867V15.0033H19.9867C24.2444 14.9926 28.367 13.5073 31.6533 10.8V25.8733Z" fill="#1089FF"/>
</svg>
