<svg width="40" height="40" viewBox="0 0 40 40" fill="none" xmlns="http://www.w3.org/2000/svg">
<path d="M26.4983 22.0481L26.49 22.0448C26.385 21.9998 26.2833 21.9481 26.1767 21.9065C27.3672 20.9733 28.33 19.7817 28.9924 18.4218C29.6547 17.0618 29.9993 15.5691 30 14.0565C29.9959 13.7053 29.9709 13.3547 29.925 13.0065C29.9507 12.9402 29.9718 12.8723 29.9883 12.8031L30.4567 8.80814C30.6028 7.54568 30.2637 6.27487 29.508 5.25307C28.7523 4.23126 27.6366 3.53482 26.3867 3.3048L25.07 3.06647C21.7183 2.45441 18.2834 2.45441 14.9317 3.06647L13.6133 3.3048C12.3635 3.53482 11.2477 4.23126 10.492 5.25307C9.73633 6.27487 9.39722 7.54568 9.54335 8.80814L10.01 12.8031C10.0271 12.8723 10.0488 12.9402 10.075 13.0065C10.0291 13.3547 10.0041 13.7053 10 14.0565C10.0007 15.5691 10.3453 17.0618 11.0076 18.4218C11.67 19.7817 12.6328 20.9733 13.8233 21.9065C13.7167 21.9481 13.615 21.9998 13.51 22.0448L13.5017 22.0481C10.7732 23.195 8.40153 25.0514 6.6328 27.4244C4.86407 29.7975 3.76281 32.6007 3.44335 35.5431C3.40186 35.9792 3.53369 36.4141 3.81035 36.7537C4.087 37.0933 4.48623 37.3103 4.92167 37.3579C5.35712 37.4054 5.79377 37.2796 6.13717 37.0077C6.48058 36.7357 6.70313 36.3396 6.75668 35.9048C6.99123 33.7416 7.75502 31.6696 8.98054 29.8717C10.2061 28.0738 11.8556 26.6055 13.7833 25.5965L18.8217 30.6348C19.1342 30.9473 19.5581 31.1228 20 31.1228C20.442 31.1228 20.8658 30.9473 21.1783 30.6348L26.2167 25.5965C28.1444 26.6055 29.794 28.0738 31.0195 29.8717C32.245 31.6696 33.0088 33.7416 33.2433 35.9048C33.2876 36.3126 33.4808 36.6898 33.7859 36.9641C34.0909 37.2384 34.4864 37.3906 34.8967 37.3915C34.9579 37.3914 35.0191 37.388 35.08 37.3815C35.2977 37.3578 35.5086 37.2915 35.7007 37.1863C35.8927 37.0811 36.0621 36.939 36.1993 36.7683C36.3364 36.5976 36.4386 36.4015 36.4999 36.1913C36.5612 35.9811 36.5805 35.7608 36.5567 35.5431C36.2371 32.6006 35.1356 29.7972 33.3665 27.4241C31.5975 25.051 29.2254 23.1948 26.4967 22.0481H26.4983ZM12.8533 8.41814C12.8049 7.9975 12.9181 7.57417 13.17 7.23381C13.4218 6.89345 13.7936 6.66147 14.21 6.5848L15.5267 6.34647C18.4844 5.80595 21.5156 5.80595 24.4733 6.34647L25.79 6.5848C26.2064 6.66147 26.5782 6.89345 26.83 7.23381C27.0819 7.57417 27.1951 7.9975 27.1467 8.41814L26.85 10.9415H13.15L12.8533 8.41814ZM20 27.1015L17.25 24.3498C19.0626 23.9601 20.9374 23.9601 22.75 24.3498L20 27.1015ZM20 20.7248C18.27 20.7228 16.6084 20.0491 15.3654 18.8459C14.1223 17.6427 13.395 16.0038 13.3367 14.2748H26.6633C26.605 16.0038 25.8777 17.6427 24.6347 18.8459C23.3916 20.0491 21.73 20.7228 20 20.7248Z" fill="#1089FF"/>
</svg>
